<svg style="height: 512px; width: 512px;" xmlns="http://www.w3.org/2000/svg" viewBox="0 0 512 512"><defs><linearGradient id="skoll-f1-car-gradient-0"><stop offset="0%" stop-color="#000000" stop-opacity="1"></stop><stop offset="100%" stop-color="#992c2c" stop-opacity="1"></stop></linearGradient><linearGradient id="skoll-f1-car-gradient-1" x1="0" x2="1" y1="0" y2="1"><stop offset="0%" stop-color="#868585" stop-opacity="1"></stop><stop offset="100%" stop-color="#ff001d" stop-opacity="0.54"></stop></linearGradient></defs><circle cx="256" cy="256" r="256" fill="url(#skoll-f1-car-gradient-0)"></circle><g class="" style="" transform="translate(30,0)"><path d="M355.975 292.25a24.82 24.82 0 1 0 24.82-24.81 24.84 24.84 0 0 0-24.82 24.81zm-253-24.81a24.81 24.81 0 1 1-24.82 24.81 24.84 24.84 0 0 1 24.81-24.81zm-76.67-71.52h67.25l-13.61 49.28 92-50.28h57.36l1.26 34.68 32 14.76 11.74-14.44h15.62l3.16 16c137.56-13 192.61 29.17 192.61 29.17s-7.52 5-25.93 8.39c-3.88 3.31-3.66 14.44-3.66 14.44h24.2v16h-52v-27.48c-1.84.07-4.45.41-7.06.47a40.81 40.81 0 1 0-77.25 23h-204.24a40.81 40.81 0 1 0-77.61-17.67c0 1.24.06 2.46.17 3.67h-36z" fill="url(#skoll-f1-car-gradient-1)" transform="translate(25.6, 25.6) scale(0.9, 0.9) rotate(0, 256, 256) skewX(-5) skewY(0)"></path></g></svg>